<svg id="svg" version="1.1" xmlns="http://www.w3.org/2000/svg" xmlns:xlink="http://www.w3.org/1999/xlink" width="400" height="353.515625" viewBox="0, 0, 400,353.515625"><g id="svgg"><path id="path0" d="M204.598 52.201 C 203.431 52.274,199.540 52.500,195.951 52.703 C 182.032 53.493,168.548 56.085,157.737 60.050 C 141.451 66.022,136.320 71.540,135.607 83.849 C 135.490 85.875,135.169 88.353,134.894 89.356 C 134.156 92.050,134.157 136.002,134.895 138.310 C 135.171 139.171,135.482 141.499,135.587 143.482 C 135.883 149.089,138.063 152.376,144.019 156.193 C 145.707 157.275,146.578 158.085,146.830 158.808 C 147.165 159.769,147.302 159.840,148.487 159.664 C 149.552 159.505,150.525 159.823,154.023 161.471 C 157.685 163.197,160.998 164.486,168.347 167.043 C 171.624 168.184,179.184 170.406,180.548 170.630 C 181.326 170.758,183.236 171.242,184.792 171.707 C 186.348 172.171,189.213 172.812,191.158 173.130 C 203.009 175.073,210.933 176.514,211.276 176.789 C 211.493 176.962,213.422 177.191,215.561 177.298 C 217.701 177.404,221.760 177.834,224.580 178.252 C 230.943 179.196,252.108 179.685,255.817 178.973 C 263.107 177.575,265.138 172.047,263.133 159.059 C 262.178 152.870,260.886 150.538,260.124 153.628 C 258.848 158.799,239.704 159.432,214.147 155.147 C 211.229 154.658,207.489 154.082,205.836 153.868 C 204.182 153.654,201.636 153.163,200.177 152.777 C 198.718 152.391,196.410 151.831,195.049 151.532 C 191.478 150.749,191.330 150.686,190.915 149.774 C 190.556 148.986,190.377 148.949,187.135 148.986 C 183.311 149.030,180.686 148.484,175.663 146.602 C 173.876 145.933,171.061 144.974,169.408 144.472 C 163.987 142.826,158.035 140.299,157.332 139.346 C 156.456 138.156,156.011 125.236,156.646 119.423 C 157.018 116.023,156.998 115.415,156.467 114.025 C 155.946 112.661,155.921 112.058,156.268 109.368 C 156.731 105.787,156.865 92.485,156.484 88.012 C 156.002 82.354,156.705 81.596,164.148 79.753 C 182.684 75.162,216.588 73.044,237.843 75.149 C 245.669 75.925,252.636 76.909,254.357 77.483 C 255.464 77.853,257.692 78.229,259.308 78.320 C 267.499 78.781,279.618 83.165,282.832 86.829 C 285.367 89.720,285.677 89.501,286.636 84.146 C 287.772 77.802,286.764 69.832,284.389 66.391 C 280.339 60.522,262.473 55.311,238.019 52.867 C 232.810 52.346,209.668 51.885,204.598 52.201 M137.405 167.728 C 136.046 170.728,135.689 173.601,135.660 181.786 L 135.632 189.390 136.633 191.427 C 137.273 192.732,138.322 194.059,139.550 195.120 C 141.961 197.201,142.036 197.996,139.965 199.483 C 136.196 202.187,135.728 203.728,135.674 213.616 L 135.632 221.220 136.630 223.253 C 137.362 224.744,138.186 225.715,139.723 226.897 C 142.962 229.389,143.155 230.414,140.676 231.953 C 136.819 234.349,135.895 236.502,135.594 243.802 C 135.214 253.011,135.871 255.596,139.439 258.928 C 141.991 261.310,142.012 262.076,139.566 263.545 C 137.223 264.952,136.246 266.879,135.819 270.935 C 135.050 278.238,135.393 280.401,137.337 280.498 C 144.561 280.861,168.716 280.666,169.746 280.237 C 170.715 279.833,171.175 279.813,171.962 280.139 C 173.181 280.643,176.179 279.893,179.603 278.227 C 183.896 276.137,184.406 274.795,184.396 265.606 C 184.386 255.901,183.615 254.433,177.181 251.865 C 172.056 249.819,172.007 249.004,176.893 247.062 C 180.689 245.553,182.699 244.288,183.358 242.994 C 184.496 240.756,184.902 231.051,184.037 226.729 C 183.459 223.836,178.964 220.552,174.182 219.529 C 170.695 218.783,167.605 218.014,161.096 216.271 C 157.984 215.437,154.403 214.512,153.139 214.215 C 141.997 211.597,139.783 207.843,146.266 202.564 C 148.644 200.628,149.781 200.453,152.860 201.551 C 156.536 202.860,160.454 203.986,164.633 204.933 C 166.967 205.462,170.787 206.436,173.121 207.098 C 175.455 207.759,178.718 208.471,180.371 208.680 C 182.025 208.889,184.253 209.296,185.323 209.586 C 186.393 209.875,188.700 210.255,190.451 210.431 C 194.682 210.856,204.090 212.042,208.488 212.705 C 224.347 215.096,249.675 214.794,253.005 212.174 C 256.008 209.812,257.966 198.856,256.457 192.856 C 255.812 190.290,255.392 190.022,253.120 190.727 C 244.091 193.527,226.760 193.136,201.415 189.561 C 189.148 187.830,187.844 187.589,185.026 186.528 C 183.781 186.060,182.063 185.676,181.207 185.676 C 180.352 185.676,177.785 185.262,175.502 184.755 C 173.220 184.248,170.398 183.620,169.231 183.360 C 166.733 182.803,164.812 182.121,162.878 181.107 C 162.108 180.702,161.017 180.371,160.454 180.371 C 153.008 180.371,138.568 171.592,138.568 167.066 C 138.568 165.451,138.390 165.553,137.405 167.728 " stroke="none" fill="#360564" fill-rule="evenodd"></path><path id="path1" d="M0.000 176.835 L 0.000 353.669 200.000 353.669 L 400.000 353.669 400.000 176.835 L 400.000 0.000 200.000 0.000 L 0.000 0.000 0.000 176.835 M156.474 50.261 C 156.367 50.434,155.971 50.575,155.594 50.575 C 154.837 50.575,154.646 49.666,155.349 49.414 C 155.904 49.215,156.734 49.840,156.474 50.261 M229.001 50.930 C 239.830 51.498,242.924 51.846,257.104 54.097 C 270.082 56.156,282.164 61.003,285.377 65.438 C 290.628 72.686,288.518 95.711,283.198 89.217 C 279.828 85.103,276.069 83.308,265.588 80.809 C 262.743 80.131,259.485 79.576,258.349 79.576 C 257.213 79.576,255.317 79.259,254.136 78.873 C 247.508 76.703,222.040 75.265,203.537 76.016 C 186.628 76.702,176.674 78.086,162.021 81.788 C 157.506 82.929,157.833 81.854,157.704 95.958 C 157.643 102.606,157.610 109.478,157.630 111.229 C 157.651 112.980,157.672 119.664,157.677 126.083 C 157.685 135.186,157.790 137.891,158.154 138.377 C 158.986 139.487,177.383 146.182,181.221 146.772 C 182.213 146.924,183.526 147.255,184.141 147.506 C 185.577 148.095,193.001 147.065,195.933 145.871 C 197.208 145.351,198.671 145.067,200.179 145.047 C 201.444 145.029,203.274 144.851,204.246 144.650 C 205.217 144.449,207.445 144.136,209.195 143.954 C 210.946 143.773,214.447 143.349,216.976 143.013 C 238.515 140.151,258.991 144.566,262.914 152.917 C 265.758 158.970,265.836 172.386,263.051 176.467 C 259.982 180.963,244.732 182.109,223.519 179.437 C 221.088 179.130,217.427 178.810,215.385 178.724 C 213.342 178.638,211.114 178.343,210.433 178.067 C 209.752 177.792,207.126 177.230,204.598 176.818 C 202.069 176.407,197.559 175.605,194.576 175.038 C 191.592 174.470,188.614 174.005,187.958 174.005 C 187.301 174.005,185.922 173.666,184.894 173.252 C 183.865 172.838,181.989 172.371,180.725 172.214 C 179.461 172.058,176.596 171.285,174.359 170.498 C 172.122 169.710,170.003 169.063,169.650 169.059 C 169.297 169.056,168.146 168.659,167.091 168.177 C 166.036 167.694,163.620 166.754,161.720 166.086 C 159.821 165.418,156.286 163.973,153.865 162.875 C 148.800 160.577,148.991 160.575,144.698 162.975 C 139.945 165.632,139.151 167.114,141.139 169.615 C 143.868 173.050,153.601 177.923,160.041 179.079 C 161.594 179.358,163.740 179.980,164.810 180.461 C 167.435 181.643,176.948 183.885,181.012 184.281 C 182.852 184.460,185.001 184.909,185.883 185.299 C 189.814 187.038,211.506 189.959,228.294 191.010 C 239.126 191.687,247.322 191.180,252.448 189.514 C 257.026 188.027,258.521 190.798,258.086 199.971 C 257.669 208.769,255.612 213.234,251.399 214.486 C 245.496 216.238,222.022 216.041,208.842 214.128 C 201.351 213.041,194.554 212.168,191.158 211.856 C 189.213 211.678,186.269 211.206,184.615 210.808 C 182.962 210.410,180.654 210.083,179.487 210.082 C 177.972 210.080,176.398 209.734,173.982 208.870 C 172.121 208.205,167.983 207.085,164.787 206.381 C 161.590 205.677,158.179 204.801,157.206 204.433 C 149.405 201.486,148.080 201.653,144.944 205.977 C 142.597 209.213,145.551 211.181,156.676 213.795 C 158.718 214.275,161.901 215.063,163.749 215.547 C 165.597 216.032,167.554 216.432,168.099 216.437 C 168.643 216.442,169.557 216.687,170.128 216.983 C 170.700 217.279,172.376 217.770,173.852 218.076 C 184.186 220.213,187.530 226.280,185.526 239.257 C 184.715 244.508,184.126 245.268,179.045 247.624 C 175.452 249.291,175.438 249.558,178.869 251.098 C 184.483 253.620,186.034 256.837,186.029 265.950 C 186.023 275.244,184.174 278.071,176.151 281.056 L 173.475 282.051 155.251 282.038 C 133.197 282.022,134.041 282.209,134.041 277.335 C 134.041 269.946,135.389 265.210,138.168 262.834 L 139.845 261.401 137.814 259.272 C 135.226 256.559,134.841 255.588,134.330 250.478 C 133.369 240.867,134.846 234.681,138.817 231.683 C 141.217 229.871,141.269 230.211,138.131 227.243 C 134.549 223.855,134.204 222.717,134.264 214.500 C 134.338 204.433,135.413 200.492,138.629 198.494 C 139.633 197.870,139.541 197.501,137.924 195.664 C 137.142 194.775,135.999 193.170,135.385 192.096 L 134.268 190.144 134.268 182.870 C 134.269 168.377,135.874 164.103,142.685 160.454 C 145.483 158.954,145.470 158.830,142.279 156.589 C 136.080 152.234,134.630 149.837,133.990 142.882 C 132.807 130.028,133.464 85.538,134.942 78.350 C 137.116 67.783,146.453 61.168,166.578 55.938 C 178.880 52.741,182.546 52.235,202.653 50.957 C 209.178 50.542,221.352 50.530,229.001 50.930 M222.812 145.218 C 222.131 145.301,220.122 145.605,218.347 145.894 C 216.572 146.183,214.105 146.424,212.865 146.430 C 210.480 146.442,204.495 147.436,201.238 148.361 C 200.168 148.665,198.497 149.034,197.524 149.182 L 195.756 149.451 197.751 150.374 C 200.432 151.613,204.199 152.431,207.224 152.431 C 208.592 152.431,210.312 152.663,211.045 152.946 C 219.616 156.257,251.629 157.679,257.387 155.005 C 262.157 152.789,255.199 147.858,244.459 145.844 C 241.812 145.347,225.617 144.879,222.812 145.218 " stroke="none" fill="#fbfbfb" fill-rule="evenodd"></path><path id="path2" d="M155.349 49.414 C 154.646 49.666,154.837 50.575,155.594 50.575 C 155.971 50.575,156.367 50.434,156.474 50.261 C 156.734 49.840,155.904 49.215,155.349 49.414 M202.653 50.957 C 182.546 52.235,178.880 52.741,166.578 55.938 C 146.453 61.168,137.116 67.783,134.942 78.350 C 133.464 85.538,132.807 130.028,133.990 142.882 C 134.630 149.837,136.080 152.234,142.279 156.589 C 145.470 158.830,145.483 158.954,142.685 160.454 C 135.874 164.103,134.269 168.377,134.268 182.870 L 134.268 190.144 135.385 192.096 C 135.999 193.170,137.142 194.775,137.924 195.664 C 139.541 197.501,139.633 197.870,138.629 198.494 C 135.413 200.492,134.338 204.433,134.264 214.500 C 134.204 222.717,134.549 223.855,138.131 227.243 C 141.269 230.211,141.217 229.871,138.817 231.683 C 134.846 234.681,133.369 240.867,134.330 250.478 C 134.841 255.588,135.226 256.559,137.814 259.272 L 139.845 261.401 138.168 262.834 C 135.389 265.210,134.041 269.946,134.041 277.335 C 134.041 282.209,133.197 282.022,155.251 282.038 L 173.475 282.051 176.151 281.056 C 184.174 278.071,186.023 275.244,186.029 265.950 C 186.034 256.837,184.483 253.620,178.869 251.098 C 175.438 249.558,175.452 249.291,179.045 247.624 C 184.126 245.268,184.715 244.508,185.526 239.257 C 187.530 226.280,184.186 220.213,173.852 218.076 C 172.376 217.770,170.700 217.279,170.128 216.983 C 169.557 216.687,168.643 216.442,168.099 216.437 C 167.554 216.432,165.597 216.032,163.749 215.547 C 161.901 215.063,158.718 214.275,156.676 213.795 C 145.551 211.181,142.597 209.213,144.944 205.977 C 148.080 201.653,149.405 201.486,157.206 204.433 C 158.179 204.801,161.590 205.677,164.787 206.381 C 167.983 207.085,172.121 208.205,173.982 208.870 C 176.398 209.734,177.972 210.080,179.487 210.082 C 180.654 210.083,182.962 210.410,184.615 210.808 C 186.269 211.206,189.213 211.678,191.158 211.856 C 194.554 212.168,201.351 213.041,208.842 214.128 C 222.022 216.041,245.496 216.238,251.399 214.486 C 255.612 213.234,257.669 208.769,258.086 199.971 C 258.521 190.798,257.026 188.027,252.448 189.514 C 242.853 192.632,219.525 191.515,190.725 186.559 C 188.930 186.250,186.751 185.684,185.883 185.299 C 185.001 184.909,182.852 184.460,181.012 184.281 C 176.948 183.885,167.435 181.643,164.810 180.461 C 163.740 179.980,161.594 179.358,160.041 179.079 C 153.601 177.923,143.868 173.050,141.139 169.615 C 139.151 167.114,139.945 165.632,144.698 162.975 C 148.991 160.575,148.800 160.577,153.865 162.875 C 156.286 163.973,159.821 165.418,161.720 166.086 C 163.620 166.754,166.036 167.694,167.091 168.177 C 168.146 168.659,169.297 169.056,169.650 169.059 C 170.003 169.063,172.122 169.710,174.359 170.498 C 176.596 171.285,179.461 172.058,180.725 172.214 C 181.989 172.371,183.865 172.838,184.894 173.252 C 185.922 173.666,187.301 174.005,187.958 174.005 C 188.614 174.005,191.592 174.470,194.576 175.038 C 197.559 175.605,202.069 176.407,204.598 176.818 C 207.126 177.230,209.752 177.792,210.433 178.067 C 211.114 178.343,213.342 178.638,215.385 178.724 C 217.427 178.810,221.088 179.130,223.519 179.437 C 244.732 182.109,259.982 180.963,263.051 176.467 C 265.836 172.386,265.758 158.970,262.914 152.917 C 258.991 144.566,238.515 140.151,216.976 143.013 C 214.447 143.349,210.946 143.773,209.195 143.954 C 207.445 144.136,205.217 144.449,204.246 144.650 C 203.274 144.851,201.444 145.029,200.179 145.047 C 198.671 145.067,197.208 145.351,195.933 145.871 C 193.001 147.065,185.577 148.095,184.141 147.506 C 183.526 147.255,182.213 146.924,181.221 146.772 C 177.383 146.182,158.986 139.487,158.154 138.377 C 157.790 137.891,157.685 135.186,157.677 126.083 C 157.672 119.664,157.651 112.980,157.630 111.229 C 157.610 109.478,157.643 102.606,157.704 95.958 C 157.833 81.854,157.506 82.929,162.021 81.788 C 176.674 78.086,186.628 76.702,203.537 76.016 C 222.040 75.265,247.508 76.703,254.136 78.873 C 255.317 79.259,257.213 79.576,258.349 79.576 C 259.485 79.576,262.743 80.131,265.588 80.809 C 276.069 83.308,279.828 85.103,283.198 89.217 C 288.518 95.711,290.628 72.686,285.377 65.438 C 280.145 58.215,257.675 52.433,229.001 50.930 C 221.352 50.530,209.178 50.542,202.653 50.957 M238.019 52.867 C 248.283 53.893,256.449 55.239,265.165 57.342 C 277.363 60.285,284.142 64.127,285.722 68.992 C 287.105 73.251,287.478 79.443,286.636 84.146 C 285.677 89.501,285.367 89.720,282.832 86.829 C 279.618 83.165,267.499 78.781,259.308 78.320 C 257.692 78.229,255.464 77.853,254.357 77.483 C 252.636 76.909,245.669 75.925,237.843 75.149 C 216.588 73.044,182.684 75.162,164.148 79.753 C 156.705 81.596,156.002 82.354,156.484 88.012 C 156.865 92.485,156.731 105.787,156.268 109.368 C 155.921 112.058,155.946 112.661,156.467 114.025 C 156.998 115.415,157.018 116.023,156.646 119.423 C 156.011 125.236,156.456 138.156,157.332 139.346 C 158.035 140.299,163.987 142.826,169.408 144.472 C 171.061 144.974,173.876 145.933,175.663 146.602 C 180.686 148.484,183.311 149.030,187.135 148.986 C 190.377 148.949,190.556 148.986,190.915 149.774 C 191.330 150.686,191.478 150.749,195.049 151.532 C 196.410 151.831,198.718 152.391,200.177 152.777 C 201.636 153.163,204.182 153.654,205.836 153.868 C 207.489 154.082,211.229 154.658,214.147 155.147 C 239.704 159.432,258.848 158.799,260.124 153.628 C 260.886 150.538,262.178 152.870,263.133 159.059 C 265.138 172.047,263.107 177.575,255.817 178.973 C 252.108 179.685,230.943 179.196,224.580 178.252 C 221.760 177.834,217.701 177.404,215.561 177.298 C 213.422 177.191,211.493 176.962,211.276 176.789 C 210.933 176.514,203.009 175.073,191.158 173.130 C 189.213 172.812,186.348 172.171,184.792 171.707 C 183.236 171.242,181.326 170.758,180.548 170.630 C 179.184 170.406,171.624 168.184,168.347 167.043 C 160.998 164.486,157.685 163.197,154.023 161.471 C 150.525 159.823,149.552 159.505,148.487 159.664 C 147.302 159.840,147.165 159.769,146.830 158.808 C 146.578 158.085,145.707 157.275,144.019 156.193 C 138.063 152.376,135.883 149.089,135.587 143.482 C 135.482 141.499,135.171 139.171,134.895 138.310 C 134.157 136.002,134.156 92.050,134.894 89.356 C 135.169 88.353,135.490 85.875,135.607 83.849 C 136.320 71.540,141.451 66.022,157.737 60.050 C 168.548 56.085,182.032 53.493,195.951 52.703 C 199.540 52.500,203.431 52.274,204.598 52.201 C 209.668 51.885,232.810 52.346,238.019 52.867 M244.459 145.844 C 255.199 147.858,262.157 152.789,257.387 155.005 C 251.629 157.679,219.616 156.257,211.045 152.946 C 210.312 152.663,208.592 152.431,207.224 152.431 C 204.199 152.431,200.432 151.613,197.751 150.374 L 195.756 149.451 197.524 149.182 C 198.497 149.034,200.168 148.665,201.238 148.361 C 204.495 147.436,210.480 146.442,212.865 146.430 C 214.105 146.424,216.572 146.183,218.347 145.894 C 223.415 145.068,223.559 145.061,232.891 145.200 C 238.566 145.285,242.710 145.515,244.459 145.844 M138.568 167.066 C 138.568 171.592,153.008 180.371,160.454 180.371 C 161.017 180.371,162.108 180.702,162.878 181.107 C 164.812 182.121,166.733 182.803,169.231 183.360 C 170.398 183.620,173.220 184.248,175.502 184.755 C 177.785 185.262,180.352 185.676,181.207 185.676 C 182.063 185.676,183.781 186.060,185.026 186.528 C 187.844 187.589,189.148 187.830,201.415 189.561 C 226.760 193.136,244.091 193.527,253.120 190.727 C 254.574 190.276,255.067 190.246,255.476 190.587 C 257.047 191.890,257.409 200.309,256.120 205.572 C 254.064 213.968,253.592 214.152,234.129 214.133 C 220.354 214.119,216.414 213.900,208.488 212.705 C 204.090 212.042,194.682 210.856,190.451 210.431 C 188.700 210.255,186.393 209.875,185.323 209.586 C 184.253 209.296,182.025 208.889,180.371 208.680 C 178.718 208.471,175.455 207.759,173.121 207.098 C 170.787 206.436,166.967 205.462,164.633 204.933 C 160.454 203.986,156.536 202.860,152.860 201.551 C 149.781 200.453,148.644 200.628,146.266 202.564 C 139.783 207.843,141.997 211.597,153.139 214.215 C 154.403 214.512,157.984 215.437,161.096 216.271 C 167.605 218.014,170.695 218.783,174.182 219.529 C 178.964 220.552,183.459 223.836,184.037 226.729 C 184.902 231.051,184.496 240.756,183.358 242.994 C 182.699 244.288,180.689 245.553,176.893 247.062 C 172.007 249.004,172.056 249.819,177.181 251.865 C 183.615 254.433,184.386 255.901,184.396 265.606 C 184.406 274.795,183.896 276.137,179.603 278.227 C 176.179 279.893,173.181 280.643,171.962 280.139 C 171.175 279.813,170.715 279.833,169.746 280.237 C 168.716 280.666,144.561 280.861,137.337 280.498 C 135.393 280.401,135.050 278.238,135.819 270.935 C 136.246 266.879,137.223 264.952,139.566 263.545 C 142.012 262.076,141.991 261.310,139.439 258.928 C 135.871 255.596,135.214 253.011,135.594 243.802 C 135.895 236.502,136.819 234.349,140.676 231.953 C 143.155 230.414,142.962 229.389,139.723 226.897 C 138.186 225.715,137.362 224.744,136.630 223.253 L 135.632 221.220 135.674 213.616 C 135.728 203.728,136.196 202.187,139.965 199.483 C 142.036 197.996,141.961 197.201,139.550 195.120 C 138.322 194.059,137.273 192.732,136.633 191.427 L 135.632 189.390 135.660 181.786 C 135.689 173.601,136.046 170.728,137.405 167.728 C 138.390 165.553,138.568 165.451,138.568 167.066 " stroke="none" fill="#7f5bb7" fill-rule="evenodd"></path></g></svg>